<svg width="256" height="256" viewBox="0 0 256 256" fill="none" xmlns="http://www.w3.org/2000/svg">
  <rect width="256" height="256" rx="56" fill="#111827"/>
  <path d="M68 181C68 122.771 112.771 78 171 78H188V104H171C130.026 104 96 138.026 96 179V188H68V181Z" fill="#6D5EF5"/>
  <path d="M98 84C98 62.4615 115.461 45 137 45H188V71H137C129.82 71 124 76.8199 124 84V95H98V84Z" fill="#FFFFFF"/>
  <path d="M132 115C132 97.3269 146.327 83 164 83H188V109H164C156.82 109 151 114.82 151 122V180H132V115Z" fill="#10B981"/>
  <circle cx="82" cy="82" r="20" fill="#FFFFFF"/>
</svg>
